<svg xmlns="http://www.w3.org/2000/svg" xmlns:xlink="http://www.w3.org/1999/xlink" width="1320" height="507" viewBox="0 0 1320 507">
  <defs>
    <clipPath id="clip-path">
      <path id="Trazado_872907" data-name="Trazado 872907" d="M19,0H1301a19,19,0,0,1,19,19V488a19,19,0,0,1-19,19H19A19,19,0,0,1,0,488V19A19,19,0,0,1,19,0Z" transform="translate(-14204 -12961)" fill="#e2cccc"/>
    </clipPath>
    <linearGradient id="linear-gradient" x1="0.954" y1="0.978" x2="0.75" y2="0.773" gradientUnits="objectBoundingBox">
      <stop offset="0" stop-color="#9266d5"/>
      <stop offset="1" stop-color="#ab41c3"/>
    </linearGradient>
    <radialGradient id="radial-gradient" cx="0.094" cy="0.096" r="1.254" gradientTransform="matrix(1, -0.003, 0.002, 0.654, 0, 0.033)" gradientUnits="objectBoundingBox">
      <stop offset="0" stop-color="#ffeb00"/>
      <stop offset="0.488" stop-color="#fc0000"/>
      <stop offset="1" stop-color="#ffce00" stop-opacity="0"/>
    </radialGradient>
    <radialGradient id="radial-gradient-2" cx="0.973" cy="0.318" r="0.856" gradientTransform="matrix(0.965, -0.261, 0.112, 0.416, -0.005, 0.394)" gradientUnits="objectBoundingBox">
      <stop offset="0" stop-color="#00ff9e"/>
      <stop offset="0.507" stop-color="#516ee2"/>
      <stop offset="1" stop-color="#32a5c8" stop-opacity="0"/>
    </radialGradient>
    <radialGradient id="radial-gradient-3" cx="0.101" cy="1.06" r="0.373" gradientTransform="matrix(0.59, -0.808, 2.212, 1.615, -2.302, -0.57)" xlink:href="#radial-gradient-2"/>
    <linearGradient id="linear-gradient-2" x1="0.966" y1="0.992" x2="0.021" y2="0.02" gradientUnits="objectBoundingBox">
      <stop offset="0" stop-color="#fff" stop-opacity="0.251"/>
      <stop offset="0.685" stop-color="#fff" stop-opacity="0.22"/>
      <stop offset="1" stop-color="#fff" stop-opacity="0"/>
    </linearGradient>
    <linearGradient id="linear-gradient-3" x1="0.516" y1="0.136" x2="0.5" y2="1" gradientUnits="objectBoundingBox">
      <stop offset="0" stop-color="#eb22cb"/>
      <stop offset="1" stop-color="#fca673"/>
    </linearGradient>
    <linearGradient id="linear-gradient-4" x1="0.498" y1="0.543" x2="0.23" y2="1.121" gradientUnits="objectBoundingBox">
      <stop offset="0" stop-color="#ffe16f"/>
      <stop offset="1" stop-color="#fdaaf8"/>
    </linearGradient>
    <clipPath id="clip-path-2">
      <rect id="Rect치ngulo_402287" data-name="Rect치ngulo 402287" width="663.389" height="502.716" fill="none"/>
    </clipPath>
    <clipPath id="clip-path-3">
      <rect id="Rect치ngulo_402287-2" data-name="Rect치ngulo 402287" width="776.003" height="588.055" fill="none"/>
    </clipPath>
    <linearGradient id="linear-gradient-5" x1="0.803" y1="0.454" x2="0.5" y2="1" gradientUnits="objectBoundingBox">
      <stop offset="0" stop-color="#6415fc"/>
      <stop offset="1" stop-color="#950c96"/>
    </linearGradient>
    <linearGradient id="linear-gradient-6" x1="0.5" y1="1" x2="0.5" gradientUnits="objectBoundingBox">
      <stop offset="0" stop-color="#9f56df"/>
      <stop offset="1" stop-color="#620b75"/>
    </linearGradient>
  </defs>
  <g id="Enmascarar_grupo_1098662" data-name="Enmascarar grupo 1098662" transform="translate(14204 12961)" clip-path="url(#clip-path)">
    <g id="Glass_card" data-name="Glass card" transform="translate(-14575.448 -9666.284) rotate(-90)" opacity="0.34">
      <path id="Forma" d="M507.228,1349.246a36.013,36.013,0,0,1-10.652,1.77H51.344C22.99,1351.016,0,1315.624,0,1271.974V79.277C0,41.054,17.625,9.2,41.075,1.77A36.02,36.02,0,0,1,51.727,0H496.959C525.313,0,548.3,35.392,548.3,79.041v1192.7C548.3,1309.961,530.677,1341.814,507.228,1349.246Z" transform="translate(2768 356)" fill="url(#linear-gradient)"/>
      <path id="Forma-2" data-name="Forma" d="M507.228,1349.246a36.013,36.013,0,0,1-10.652,1.77H51.344C22.99,1351.016,0,1315.624,0,1271.974V79.277C0,41.054,17.625,9.2,41.075,1.77A36.02,36.02,0,0,1,51.727,0H496.959C525.313,0,548.3,35.392,548.3,79.041v1192.7C548.3,1309.961,530.677,1341.814,507.228,1349.246Z" transform="translate(2768 356)" fill="url(#radial-gradient)"/>
      <path id="Forma-3" data-name="Forma" d="M507.228,1349.246a36.013,36.013,0,0,1-10.652,1.77H51.344C22.99,1351.016,0,1315.624,0,1271.974V79.277C0,41.054,17.625,9.2,41.075,1.77A36.02,36.02,0,0,1,51.727,0H496.959C525.313,0,548.3,35.392,548.3,79.041v1192.7C548.3,1309.961,530.677,1341.814,507.228,1349.246Z" transform="translate(2768 356)" fill="url(#radial-gradient-2)"/>
      <path id="Forma-4" data-name="Forma" d="M507.228,1349.246a36.013,36.013,0,0,1-10.652,1.77H51.344C22.99,1351.016,0,1315.624,0,1271.974V79.277C0,41.054,17.625,9.2,41.075,1.77A36.02,36.02,0,0,1,51.727,0H496.959C525.313,0,548.3,35.392,548.3,79.041v1192.7C548.3,1309.961,530.677,1341.814,507.228,1349.246Z" transform="translate(2768 356)" fill="url(#radial-gradient-3)"/>
      <path id="Forma-5" data-name="Forma" d="M496.576,1343.937a32.515,32.515,0,0,0,9.725-1.624c21.673-6.869,37.4-36.55,37.4-70.575V79.041c0-39.681-20.97-71.963-46.746-71.963H51.727A32.523,32.523,0,0,0,42,8.7C20.329,15.572,4.6,45.253,4.6,79.277v1192.7c0,39.681,20.97,71.963,46.746,71.963H496.576m0,7.078H51.344C22.99,1351.016,0,1315.624,0,1271.974V79.277C0,41.054,17.625,9.2,41.075,1.77A36.02,36.02,0,0,1,51.727,0H496.959C525.313,0,548.3,35.392,548.3,79.041v1192.7c0,38.223-17.625,70.075-41.075,77.507A36.013,36.013,0,0,1,496.576,1351.016Z" transform="translate(2768 356)" fill="url(#linear-gradient-2)"/>
    </g>
    <g id="Blur" transform="translate(-13419.326 -13033.993)">
      <ellipse id="Ellipse_19" data-name="Ellipse 19" cx="198.963" cy="186.859" rx="198.963" ry="186.859" transform="translate(89.311 13.936) rotate(-2.345)" fill="#6826eb"/>
      <path id="Ellipse_17" data-name="Ellipse 17" d="M313.232,418.066c3.023,73.81-58.224,135.948-136.8,138.788S31.707,502.161,28.683,428.35c-1.378-33.641,10.282-72.5,30.82-105.1,24.525-38.93,61.709-68.938,104.473-70.484,42.043-1.52,33.97,65.727,61.533,101.817,23.951,31.361,86.318,29.168,87.723,63.485Z" transform="translate(0 -47.229)" fill="url(#linear-gradient-3)"/>
      <ellipse id="Ellipse_18" data-name="Ellipse 18" cx="198.963" cy="186.859" rx="198.963" ry="186.859" transform="translate(162.793 44.884) rotate(-2.345)" fill="url(#linear-gradient-4)"/>
    </g>
    <g id="Grupo_1099659" data-name="Grupo 1099659" transform="translate(-13555.333 -12951)" opacity="0.527">
      <g id="Grupo_1099658" data-name="Grupo 1099658" transform="translate(0 0)" clip-path="url(#clip-path-2)">
        <path id="Trazado_877909" data-name="Trazado 877909" d="M362.383,497.536c-35.49-41.506-64.567-191-167.99-191.151-110.738-.16-112.732,70.721-164.232,71.073A60.418,60.418,0,0,1,0,370.129c13.2-13.9,28.846-25.7,42.941-38.852,18.852-17.593,35.93-39.858,36.909-65.518.947-24.844-13.4-48.379-12.541-73.226,1.086-31.412,30.322-59.2,62-58.932,11.9.1,28.73,4.415,36.546,14.779,8.088,10.724,6.824,24.564,18.268,34.375,13.058,11.194,23.69,10.623,34.66,6.066,6.61-2.746,13.343-6.939,20.8-10.876,22.87-12.071,45.266-25.573,69.787-33.8,51.016-17.113,108.538-9.689,156.776,14.064s87.694,62.757,117.865,107.015c18.207,26.708,33.547,56.193,38.117,88.116,5.81,40.591-6.195,81.6-21.464,119.7C587.6,505.629,562.048,539.492,531.6,557.3a102.314,102.314,0,0,1-28.41,11.466c-32.159-2.842-93.444-15.845-140.8-71.233" transform="translate(39.768 -100.359)" fill="#f7e6d3"/>
        <path id="Trazado_877910" data-name="Trazado 877910" d="M2663.814,856.46l-.5,13.13a44.221,44.221,0,0,1,.5-13.13" transform="translate(-2663.011 -643.365)" fill="#f7e6d3"/>
        <path id="Trazado_877911" data-name="Trazado 877911" d="M2304.709,582.821c9.454-13.895,24.56-24.5,40.933-24.621s33,12.378,34.912,29.281c1.582,13.983-6.469,27.238-15.917,37.328-9.046,9.66-46.169,38.845-65.954,34.735a113.137,113.137,0,0,1-10.806-29.845c2.94-16.542,7.491-33.151,16.831-46.878" transform="translate(-2286.614 -419.315)" fill="#f7e6d3"/>
        <path id="Trazado_877912" data-name="Trazado 877912" d="M1477.716,67.782c-30.106-2.112-56.092-32.211-25.36-58.189,11.177-9.447,26.969-11.416,41.01-8.069,10.489,2.5,20.938,8.337,25.813,18.308,5.688,11.632,2.1,26.723-6.811,35.915s-22.127,12.915-34.653,12.036" transform="translate(-1216.46 -0.005)" fill="#f7e6d3"/>
        <path id="Trazado_877913" data-name="Trazado 877913" d="M955.324,1090.107c-34.378-5.047-68.884-13.721-103.423-9.911-32.667,3.6-62.911,18.119-94.089,28.442-45.325,15.007-94.475,21.229-141.185,11.244s-90.661-37.422-114.564-78.473S477.1,945.55,504.521,906.726a134.032,134.032,0,0,1,12.385-14.932,60.422,60.422,0,0,0,30.162,7.33c51.5-.353,53.493-71.233,164.231-71.073,103.423.15,132.5,149.645,167.991,191.151,47.359,55.388,108.644,68.391,140.8,71.233-20.417,4.825-41.309,3.117-64.769-.328" transform="translate(-477.138 -622.023)" fill="#ffd259"/>
        <path id="Trazado_877914" data-name="Trazado 877914" d="M2619.8,868.019a20.634,20.634,0,0,1-2.069-6.614l.5-13.13q.169-1.058.353-2.1c.035-.2.073-.406.109-.609a113.117,113.117,0,0,0,10.806,29.845,13.6,13.6,0,0,1-9.7-7.389" transform="translate(-2617.429 -635.179)" fill="#f7e6d3"/>
      </g>
    </g>
    <g id="Grupo_1099660" data-name="Grupo 1099660" transform="matrix(0.966, -0.259, 0.259, 0.966, -14492.087, -13287.586)" opacity="0.749">
      <g id="Grupo_1099658-2" data-name="Grupo 1099658" transform="translate(-116.461 -56.052)" clip-path="url(#clip-path-3)">
        <path id="Trazado_877909-2" data-name="Trazado 877909" d="M423.9,559.317c-41.514-48.552-75.528-223.425-196.508-223.6C97.855,335.53,95.524,418.443,35.281,418.855A70.675,70.675,0,0,1,0,410.282c15.446-16.263,33.743-30.061,50.231-45.447,22.053-20.58,42.029-46.624,43.174-76.64,1.108-29.062-15.675-56.591-14.67-85.657C80,165.792,114.2,133.285,151.258,133.6c13.919.118,33.608,5.165,42.75,17.287,9.461,12.545,7.982,28.734,21.369,40.21,15.275,13.095,27.712,12.426,40.544,7.1,7.732-3.212,15.608-8.116,24.335-12.722,26.752-14.12,52.95-29.914,81.634-39.535,59.676-20.018,126.962-11.334,183.39,16.451S647.86,235.8,683.152,287.569c21.3,31.241,39.242,65.732,44.587,103.074,6.8,47.482-7.246,95.453-25.107,140.017-15.279,38.123-45.174,77.735-80.794,98.57a119.683,119.683,0,0,1-33.233,13.412c-37.618-3.325-109.307-18.535-164.7-83.325" transform="translate(46.519 -94.716)" fill="#f7e6d3"/>
        <path id="Trazado_877910-2" data-name="Trazado 877910" d="M2663.95,856.46l-.589,15.359a51.724,51.724,0,0,1,.589-15.359" transform="translate(-2663.011 -607.191)" fill="#f7e6d3"/>
        <path id="Trazado_877911-2" data-name="Trazado 877911" d="M2307.566,587c11.059-16.254,28.73-28.658,47.882-28.8s38.6,14.48,40.839,34.251c1.851,16.357-7.567,31.862-18.619,43.664-10.582,11.3-54.007,45.439-77.15,40.631a132.339,132.339,0,0,1-12.641-34.911c3.44-19.35,8.763-38.778,19.688-54.835" transform="translate(-2286.399 -395.738)" fill="#f7e6d3"/>
        <path id="Trazado_877912-2" data-name="Trazado 877912" d="M1484.364,79.287c-35.217-2.471-65.614-37.679-29.665-68.067,13.074-11.051,31.548-13.354,47.971-9.439,12.269,2.925,24.492,9.752,30.2,21.416,6.654,13.607,2.457,31.26-7.967,42.012s-25.884,15.107-40.535,14.079" transform="translate(-1178.759 -0.005)" fill="#f7e6d3"/>
        <path id="Trazado_877913-2" data-name="Trazado 877913" d="M1035.327,1134.592c-40.213-5.9-80.577-16.05-120.98-11.593-38.212,4.216-73.59,21.194-110.061,33.27-53.02,17.554-110.512,24.833-165.153,13.153s-106.052-43.775-134.012-91.794S475.919,965.5,508,920.081a156.783,156.783,0,0,1,14.487-17.466,70.681,70.681,0,0,0,35.282,8.574c60.242-.412,62.574-83.325,192.111-83.139,120.98.175,154.994,175.048,196.508,223.6,55.4,64.791,127.087,80,164.705,83.325-23.883,5.644-48.322,3.646-75.764-.383" transform="translate(-475.966 -587.049)" fill="#ffd259"/>
        <path id="Trazado_877914-2" data-name="Trazado 877914" d="M2620.149,871.831a24.135,24.135,0,0,1-2.42-7.737l.589-15.359q.2-1.238.413-2.459c.041-.238.085-.475.127-.713a132.307,132.307,0,0,0,12.64,34.911,15.91,15.91,0,0,1-11.348-8.643" transform="translate(-2617.378 -599.465)" fill="#f7e6d3"/>
      </g>
    </g>
    <g id="Grupo_1099661" data-name="Grupo 1099661" transform="matrix(0.966, -0.259, 0.259, 0.966, -14273.087, -12430.431)" opacity="0.527">
      <g id="Grupo_1099658-3" data-name="Grupo 1099658" transform="translate(-116.461 -56.052)" clip-path="url(#clip-path-3)">
        <path id="Trazado_877909-3" data-name="Trazado 877909" d="M423.9,559.317c-41.514-48.552-75.528-223.425-196.508-223.6C97.855,335.53,95.524,418.443,35.281,418.855A70.675,70.675,0,0,1,0,410.282c15.446-16.263,33.743-30.061,50.231-45.447,22.053-20.58,42.029-46.624,43.174-76.64,1.108-29.062-15.675-56.591-14.67-85.657C80,165.792,114.2,133.285,151.258,133.6c13.919.118,33.608,5.165,42.75,17.287,9.461,12.545,7.982,28.734,21.369,40.21,15.275,13.095,27.712,12.426,40.544,7.1,7.732-3.212,15.608-8.116,24.335-12.722,26.752-14.12,52.95-29.914,81.634-39.535,59.676-20.018,126.962-11.334,183.39,16.451S647.86,235.8,683.152,287.569c21.3,31.241,39.242,65.732,44.587,103.074,6.8,47.482-7.246,95.453-25.107,140.017-15.279,38.123-45.174,77.735-80.794,98.57a119.683,119.683,0,0,1-33.233,13.412c-37.618-3.325-109.307-18.535-164.7-83.325" transform="translate(46.519 -94.716)" fill="#f7e6d3"/>
        <path id="Trazado_877910-3" data-name="Trazado 877910" d="M2663.95,856.46l-.589,15.359a51.724,51.724,0,0,1,.589-15.359" transform="translate(-2663.011 -607.191)" fill="#f7e6d3"/>
        <path id="Trazado_877911-3" data-name="Trazado 877911" d="M2307.566,587c11.059-16.254,28.73-28.658,47.882-28.8s38.6,14.48,40.839,34.251c1.851,16.357-7.567,31.862-18.619,43.664-10.582,11.3-54.007,45.439-77.15,40.631a132.339,132.339,0,0,1-12.641-34.911c3.44-19.35,8.763-38.778,19.688-54.835" transform="translate(-2286.399 -395.738)" fill="#f7e6d3"/>
        <path id="Trazado_877912-3" data-name="Trazado 877912" d="M1484.364,79.287c-35.217-2.471-65.614-37.679-29.665-68.067,13.074-11.051,31.548-13.354,47.971-9.439,12.269,2.925,24.492,9.752,30.2,21.416,6.654,13.607,2.457,31.26-7.967,42.012s-25.884,15.107-40.535,14.079" transform="translate(-1178.759 -0.005)" fill="#f7e6d3"/>
        <path id="Trazado_877913-3" data-name="Trazado 877913" d="M1035.327,1134.592c-40.213-5.9-80.577-16.05-120.98-11.593-38.212,4.216-73.59,21.194-110.061,33.27-53.02,17.554-110.512,24.833-165.153,13.153s-106.052-43.775-134.012-91.794S475.919,965.5,508,920.081a156.783,156.783,0,0,1,14.487-17.466,70.681,70.681,0,0,0,35.282,8.574c60.242-.412,62.574-83.325,192.111-83.139,120.98.175,154.994,175.048,196.508,223.6,55.4,64.791,127.087,80,164.705,83.325-23.883,5.644-48.322,3.646-75.764-.383" transform="translate(-475.966 -587.049)" fill="#ffd259"/>
        <path id="Trazado_877914-3" data-name="Trazado 877914" d="M2620.149,871.831a24.135,24.135,0,0,1-2.42-7.737l.589-15.359q.2-1.238.413-2.459c.041-.238.085-.475.127-.713a132.307,132.307,0,0,0,12.64,34.911,15.91,15.91,0,0,1-11.348-8.643" transform="translate(-2617.378 -599.465)" fill="#f7e6d3"/>
      </g>
    </g>
    <g id="Blur_2" data-name="Blur 2" transform="translate(-14422 -12597.725)">
      <path id="Ellipse_19-2" data-name="Ellipse 19" d="M168.153,134.764c0,74.428,41.04,134.764-33.388,134.764A134.764,134.764,0,0,1,134.764,0C209.193,0,168.153,60.336,168.153,134.764Z" transform="translate(77.008 0)" fill="url(#linear-gradient-5)"/>
      <circle id="Ellipse_21" data-name="Ellipse 21" cx="120.898" cy="120.898" r="120.898" transform="translate(0 65.43)" fill="#ff8993"/>
      <path id="Ellipse_20" data-name="Ellipse 20" d="M219.985,115.108C219.985,51.536,139.293,0,39.754,0S58.97,51.536,58.97,115.108-59.785,230.217,39.754,230.217,219.985,178.681,219.985,115.108Z" transform="translate(360 326.881) rotate(180)" fill="url(#linear-gradient-6)"/>
    </g>
  </g>
</svg>
